<mxfile host="Electron" modified="2024-02-12T00:13:39.956Z" agent="Mozilla/5.0 (X11; Linux x86_64) AppleWebKit/537.36 (KHTML, like Gecko) draw.io/23.0.2 Chrome/120.0.6099.109 Electron/28.1.0 Safari/537.36" etag="YGTyVh5ZZafn0I9HyCB6" version="23.0.2" type="device">
  <diagram name="Page-1" id="6xblZiJCW15wT8xddJHO">
    <mxGraphModel dx="1195" dy="725" grid="1" gridSize="10" guides="1" tooltips="1" connect="1" arrows="1" fold="1" page="1" pageScale="1" pageWidth="1169" pageHeight="827" math="0" shadow="0">
      <root>
        <mxCell id="0" />
        <mxCell id="1" parent="0" />
        <mxCell id="2Q_M9urx1Pjpfh60Bvit-15" style="edgeStyle=orthogonalEdgeStyle;rounded=0;orthogonalLoop=1;jettySize=auto;html=1;entryX=0;entryY=0.5;entryDx=0;entryDy=0;strokeColor=#00BFB4;" edge="1" parent="1" source="2Q_M9urx1Pjpfh60Bvit-14" target="2Q_M9urx1Pjpfh60Bvit-2">
          <mxGeometry relative="1" as="geometry" />
        </mxCell>
        <mxCell id="2Q_M9urx1Pjpfh60Bvit-16" value="Empty_Job" style="edgeLabel;html=1;align=center;verticalAlign=middle;resizable=0;points=[];" vertex="1" connectable="0" parent="2Q_M9urx1Pjpfh60Bvit-15">
          <mxGeometry x="0.0889" relative="1" as="geometry">
            <mxPoint x="-4" as="offset" />
          </mxGeometry>
        </mxCell>
        <mxCell id="2Q_M9urx1Pjpfh60Bvit-14" value="Instruction Input" style="rounded=1;whiteSpace=wrap;html=1;" vertex="1" parent="1">
          <mxGeometry x="80" y="330" width="120" height="60" as="geometry" />
        </mxCell>
        <mxCell id="2Q_M9urx1Pjpfh60Bvit-59" style="edgeStyle=orthogonalEdgeStyle;rounded=0;orthogonalLoop=1;jettySize=auto;html=1;exitX=1;exitY=0.5;exitDx=0;exitDy=0;entryX=0;entryY=0.5;entryDx=0;entryDy=0;strokeColor=#EA6B66;" edge="1" parent="1" source="2Q_M9urx1Pjpfh60Bvit-17" target="2Q_M9urx1Pjpfh60Bvit-52">
          <mxGeometry relative="1" as="geometry" />
        </mxCell>
        <mxCell id="2Q_M9urx1Pjpfh60Bvit-62" value="Job" style="edgeLabel;html=1;align=center;verticalAlign=middle;resizable=0;points=[];" vertex="1" connectable="0" parent="2Q_M9urx1Pjpfh60Bvit-59">
          <mxGeometry x="-0.0786" y="1" relative="1" as="geometry">
            <mxPoint as="offset" />
          </mxGeometry>
        </mxCell>
        <mxCell id="2Q_M9urx1Pjpfh60Bvit-17" value="+" style="ellipse;whiteSpace=wrap;html=1;aspect=fixed;" vertex="1" parent="1">
          <mxGeometry x="480" y="340" width="40" height="40" as="geometry" />
        </mxCell>
        <mxCell id="2Q_M9urx1Pjpfh60Bvit-18" style="edgeStyle=orthogonalEdgeStyle;rounded=0;orthogonalLoop=1;jettySize=auto;html=1;exitX=1;exitY=0.5;exitDx=0;exitDy=0;entryX=0;entryY=0.5;entryDx=0;entryDy=0;strokeColor=#00BFB4;" edge="1" parent="1" source="2Q_M9urx1Pjpfh60Bvit-2" target="2Q_M9urx1Pjpfh60Bvit-17">
          <mxGeometry relative="1" as="geometry" />
        </mxCell>
        <mxCell id="2Q_M9urx1Pjpfh60Bvit-21" value="Empty_Job" style="edgeLabel;html=1;align=center;verticalAlign=middle;resizable=0;points=[];" vertex="1" connectable="0" parent="2Q_M9urx1Pjpfh60Bvit-18">
          <mxGeometry x="-0.18" relative="1" as="geometry">
            <mxPoint x="5" as="offset" />
          </mxGeometry>
        </mxCell>
        <mxCell id="2Q_M9urx1Pjpfh60Bvit-25" value="" style="group" vertex="1" connectable="0" parent="1">
          <mxGeometry x="280" y="320" width="120" height="80" as="geometry" />
        </mxCell>
        <mxCell id="2Q_M9urx1Pjpfh60Bvit-2" value="" style="rounded=0;whiteSpace=wrap;html=1;strokeColor=#00BFB4;" vertex="1" parent="2Q_M9urx1Pjpfh60Bvit-25">
          <mxGeometry width="120" height="80" as="geometry" />
        </mxCell>
        <mxCell id="2Q_M9urx1Pjpfh60Bvit-4" value="" style="endArrow=none;html=1;rounded=0;entryX=0.25;entryY=0;entryDx=0;entryDy=0;exitX=0.25;exitY=1;exitDx=0;exitDy=0;strokeColor=#00BFB4;" edge="1" parent="2Q_M9urx1Pjpfh60Bvit-25">
          <mxGeometry width="50" height="50" relative="1" as="geometry">
            <mxPoint x="79.82999999999998" y="80" as="sourcePoint" />
            <mxPoint x="79.82999999999998" as="targetPoint" />
          </mxGeometry>
        </mxCell>
        <mxCell id="2Q_M9urx1Pjpfh60Bvit-7" value="" style="endArrow=none;html=1;rounded=0;entryX=0.25;entryY=0;entryDx=0;entryDy=0;exitX=0.25;exitY=1;exitDx=0;exitDy=0;strokeColor=#00BFB4;" edge="1" parent="2Q_M9urx1Pjpfh60Bvit-25">
          <mxGeometry width="50" height="50" relative="1" as="geometry">
            <mxPoint x="100" y="80" as="sourcePoint" />
            <mxPoint x="100" as="targetPoint" />
          </mxGeometry>
        </mxCell>
        <mxCell id="2Q_M9urx1Pjpfh60Bvit-9" value="" style="endArrow=none;html=1;rounded=0;entryX=0.25;entryY=0;entryDx=0;entryDy=0;exitX=0.25;exitY=1;exitDx=0;exitDy=0;strokeColor=#00BFB4;" edge="1" parent="2Q_M9urx1Pjpfh60Bvit-25">
          <mxGeometry width="50" height="50" relative="1" as="geometry">
            <mxPoint x="20" y="80" as="sourcePoint" />
            <mxPoint x="20" as="targetPoint" />
          </mxGeometry>
        </mxCell>
        <mxCell id="2Q_M9urx1Pjpfh60Bvit-23" value="" style="endArrow=none;html=1;rounded=0;entryX=0.25;entryY=0;entryDx=0;entryDy=0;exitX=0.25;exitY=1;exitDx=0;exitDy=0;strokeColor=#00BFB4;" edge="1" parent="2Q_M9urx1Pjpfh60Bvit-25">
          <mxGeometry width="50" height="50" relative="1" as="geometry">
            <mxPoint x="40" y="80" as="sourcePoint" />
            <mxPoint x="40" as="targetPoint" />
          </mxGeometry>
        </mxCell>
        <mxCell id="2Q_M9urx1Pjpfh60Bvit-24" value="" style="endArrow=none;html=1;rounded=0;entryX=0.25;entryY=0;entryDx=0;entryDy=0;exitX=0.25;exitY=1;exitDx=0;exitDy=0;strokeColor=#00BFB4;" edge="1" parent="2Q_M9urx1Pjpfh60Bvit-25">
          <mxGeometry width="50" height="50" relative="1" as="geometry">
            <mxPoint x="59.89999999999998" y="80" as="sourcePoint" />
            <mxPoint x="59.89999999999998" as="targetPoint" />
          </mxGeometry>
        </mxCell>
        <mxCell id="2Q_M9urx1Pjpfh60Bvit-26" value="" style="group" vertex="1" connectable="0" parent="1">
          <mxGeometry x="280" y="200" width="120" height="80" as="geometry" />
        </mxCell>
        <mxCell id="2Q_M9urx1Pjpfh60Bvit-27" value="" style="rounded=0;whiteSpace=wrap;html=1;strokeColor=#00BFB4;" vertex="1" parent="2Q_M9urx1Pjpfh60Bvit-26">
          <mxGeometry width="120" height="80" as="geometry" />
        </mxCell>
        <mxCell id="2Q_M9urx1Pjpfh60Bvit-28" value="" style="endArrow=none;html=1;rounded=0;entryX=0.25;entryY=0;entryDx=0;entryDy=0;exitX=0.25;exitY=1;exitDx=0;exitDy=0;strokeColor=#00BFB4;" edge="1" parent="2Q_M9urx1Pjpfh60Bvit-26">
          <mxGeometry width="50" height="50" relative="1" as="geometry">
            <mxPoint x="79.82999999999998" y="80" as="sourcePoint" />
            <mxPoint x="79.82999999999998" as="targetPoint" />
          </mxGeometry>
        </mxCell>
        <mxCell id="2Q_M9urx1Pjpfh60Bvit-29" value="" style="endArrow=none;html=1;rounded=0;entryX=0.25;entryY=0;entryDx=0;entryDy=0;exitX=0.25;exitY=1;exitDx=0;exitDy=0;strokeColor=#00BFB4;" edge="1" parent="2Q_M9urx1Pjpfh60Bvit-26">
          <mxGeometry width="50" height="50" relative="1" as="geometry">
            <mxPoint x="100" y="80" as="sourcePoint" />
            <mxPoint x="100" as="targetPoint" />
          </mxGeometry>
        </mxCell>
        <mxCell id="2Q_M9urx1Pjpfh60Bvit-30" value="" style="endArrow=none;html=1;rounded=0;entryX=0.25;entryY=0;entryDx=0;entryDy=0;exitX=0.25;exitY=1;exitDx=0;exitDy=0;strokeColor=#00BFB4;" edge="1" parent="2Q_M9urx1Pjpfh60Bvit-26">
          <mxGeometry width="50" height="50" relative="1" as="geometry">
            <mxPoint x="20" y="80" as="sourcePoint" />
            <mxPoint x="20" as="targetPoint" />
          </mxGeometry>
        </mxCell>
        <mxCell id="2Q_M9urx1Pjpfh60Bvit-31" value="" style="endArrow=none;html=1;rounded=0;entryX=0.25;entryY=0;entryDx=0;entryDy=0;exitX=0.25;exitY=1;exitDx=0;exitDy=0;strokeColor=#00BFB4;" edge="1" parent="2Q_M9urx1Pjpfh60Bvit-26">
          <mxGeometry width="50" height="50" relative="1" as="geometry">
            <mxPoint x="40" y="80" as="sourcePoint" />
            <mxPoint x="40" as="targetPoint" />
          </mxGeometry>
        </mxCell>
        <mxCell id="2Q_M9urx1Pjpfh60Bvit-32" value="" style="endArrow=none;html=1;rounded=0;entryX=0.25;entryY=0;entryDx=0;entryDy=0;exitX=0.25;exitY=1;exitDx=0;exitDy=0;strokeColor=#00BFB4;" edge="1" parent="2Q_M9urx1Pjpfh60Bvit-26">
          <mxGeometry width="50" height="50" relative="1" as="geometry">
            <mxPoint x="59.89999999999998" y="80" as="sourcePoint" />
            <mxPoint x="59.89999999999998" as="targetPoint" />
          </mxGeometry>
        </mxCell>
        <mxCell id="2Q_M9urx1Pjpfh60Bvit-33" value="Instruction_Queue" style="text;html=1;strokeColor=none;fillColor=none;align=center;verticalAlign=middle;whiteSpace=wrap;rounded=0;" vertex="1" parent="1">
          <mxGeometry x="280" y="290" width="120" height="30" as="geometry" />
        </mxCell>
        <mxCell id="2Q_M9urx1Pjpfh60Bvit-34" value="Unused_Instruction_Queue" style="text;html=1;strokeColor=none;fillColor=none;align=center;verticalAlign=middle;whiteSpace=wrap;rounded=0;" vertex="1" parent="1">
          <mxGeometry x="260" y="170" width="160" height="30" as="geometry" />
        </mxCell>
        <mxCell id="2Q_M9urx1Pjpfh60Bvit-35" style="edgeStyle=orthogonalEdgeStyle;rounded=0;orthogonalLoop=1;jettySize=auto;html=1;exitX=0;exitY=0.5;exitDx=0;exitDy=0;entryX=0.5;entryY=0;entryDx=0;entryDy=0;strokeColor=#00BFB4;" edge="1" parent="1" source="2Q_M9urx1Pjpfh60Bvit-27" target="2Q_M9urx1Pjpfh60Bvit-14">
          <mxGeometry relative="1" as="geometry" />
        </mxCell>
        <mxCell id="2Q_M9urx1Pjpfh60Bvit-36" value="Empty_Job" style="edgeLabel;html=1;align=center;verticalAlign=middle;resizable=0;points=[];" vertex="1" connectable="0" parent="2Q_M9urx1Pjpfh60Bvit-35">
          <mxGeometry x="-0.5174" y="-1" relative="1" as="geometry">
            <mxPoint as="offset" />
          </mxGeometry>
        </mxCell>
        <mxCell id="2Q_M9urx1Pjpfh60Bvit-39" style="edgeStyle=orthogonalEdgeStyle;rounded=0;orthogonalLoop=1;jettySize=auto;html=1;exitX=1;exitY=0.25;exitDx=0;exitDy=0;entryX=1;entryY=0.5;entryDx=0;entryDy=0;strokeColor=#00BFB4;" edge="1" parent="1" source="2Q_M9urx1Pjpfh60Bvit-37" target="2Q_M9urx1Pjpfh60Bvit-27">
          <mxGeometry relative="1" as="geometry" />
        </mxCell>
        <mxCell id="2Q_M9urx1Pjpfh60Bvit-40" value="Empty_Job" style="edgeLabel;html=1;align=center;verticalAlign=middle;resizable=0;points=[];" vertex="1" connectable="0" parent="2Q_M9urx1Pjpfh60Bvit-39">
          <mxGeometry x="0.6743" relative="1" as="geometry">
            <mxPoint x="295" as="offset" />
          </mxGeometry>
        </mxCell>
        <mxCell id="2Q_M9urx1Pjpfh60Bvit-64" style="edgeStyle=orthogonalEdgeStyle;rounded=0;orthogonalLoop=1;jettySize=auto;html=1;exitX=1;exitY=0.75;exitDx=0;exitDy=0;entryX=1;entryY=0.5;entryDx=0;entryDy=0;fontColor=#FFD966;strokeColor=#FFD966;" edge="1" parent="1" source="2Q_M9urx1Pjpfh60Bvit-37" target="2Q_M9urx1Pjpfh60Bvit-44">
          <mxGeometry relative="1" as="geometry">
            <mxPoint x="859.9999999999998" y="450" as="targetPoint" />
          </mxGeometry>
        </mxCell>
        <mxCell id="2Q_M9urx1Pjpfh60Bvit-86" value="Data_Buf" style="edgeLabel;html=1;align=center;verticalAlign=middle;resizable=0;points=[];" vertex="1" connectable="0" parent="2Q_M9urx1Pjpfh60Bvit-64">
          <mxGeometry x="0.3197" relative="1" as="geometry">
            <mxPoint x="-13" as="offset" />
          </mxGeometry>
        </mxCell>
        <mxCell id="2Q_M9urx1Pjpfh60Bvit-37" value="Signal Generator" style="rounded=1;whiteSpace=wrap;html=1;" vertex="1" parent="1">
          <mxGeometry x="720" y="330" width="120" height="60" as="geometry" />
        </mxCell>
        <mxCell id="2Q_M9urx1Pjpfh60Bvit-42" value="PIO" style="rounded=1;whiteSpace=wrap;html=1;" vertex="1" parent="1">
          <mxGeometry x="720" y="600" width="80" height="80" as="geometry" />
        </mxCell>
        <mxCell id="2Q_M9urx1Pjpfh60Bvit-50" value="" style="group;rotation=-180;" vertex="1" connectable="0" parent="1">
          <mxGeometry x="920" y="334" width="120" height="80" as="geometry" />
        </mxCell>
        <mxCell id="2Q_M9urx1Pjpfh60Bvit-44" value="" style="rounded=0;whiteSpace=wrap;html=1;strokeColor=#FFD966;rotation=-180;" vertex="1" parent="2Q_M9urx1Pjpfh60Bvit-50">
          <mxGeometry width="120" height="80" as="geometry" />
        </mxCell>
        <mxCell id="2Q_M9urx1Pjpfh60Bvit-45" value="" style="endArrow=none;html=1;rounded=0;entryX=0.25;entryY=0;entryDx=0;entryDy=0;exitX=0.25;exitY=1;exitDx=0;exitDy=0;strokeColor=#FFD966;" edge="1" parent="2Q_M9urx1Pjpfh60Bvit-50">
          <mxGeometry width="50" height="50" relative="1" as="geometry">
            <mxPoint x="40" as="sourcePoint" />
            <mxPoint x="40" y="80" as="targetPoint" />
          </mxGeometry>
        </mxCell>
        <mxCell id="2Q_M9urx1Pjpfh60Bvit-46" value="" style="endArrow=none;html=1;rounded=0;entryX=0.25;entryY=0;entryDx=0;entryDy=0;exitX=0.25;exitY=1;exitDx=0;exitDy=0;strokeColor=#FFD966;" edge="1" parent="2Q_M9urx1Pjpfh60Bvit-50">
          <mxGeometry width="50" height="50" relative="1" as="geometry">
            <mxPoint x="20" as="sourcePoint" />
            <mxPoint x="20" y="80" as="targetPoint" />
          </mxGeometry>
        </mxCell>
        <mxCell id="2Q_M9urx1Pjpfh60Bvit-47" value="" style="endArrow=none;html=1;rounded=0;entryX=0.25;entryY=0;entryDx=0;entryDy=0;exitX=0.25;exitY=1;exitDx=0;exitDy=0;strokeColor=#FFD966;" edge="1" parent="2Q_M9urx1Pjpfh60Bvit-50">
          <mxGeometry width="50" height="50" relative="1" as="geometry">
            <mxPoint x="100" as="sourcePoint" />
            <mxPoint x="100" y="80" as="targetPoint" />
          </mxGeometry>
        </mxCell>
        <mxCell id="2Q_M9urx1Pjpfh60Bvit-48" value="" style="endArrow=none;html=1;rounded=0;entryX=0.25;entryY=0;entryDx=0;entryDy=0;exitX=0.25;exitY=1;exitDx=0;exitDy=0;strokeColor=#FFD966;" edge="1" parent="2Q_M9urx1Pjpfh60Bvit-50">
          <mxGeometry width="50" height="50" relative="1" as="geometry">
            <mxPoint x="80" as="sourcePoint" />
            <mxPoint x="80" y="80" as="targetPoint" />
          </mxGeometry>
        </mxCell>
        <mxCell id="2Q_M9urx1Pjpfh60Bvit-49" value="" style="endArrow=none;html=1;rounded=0;entryX=0.25;entryY=0;entryDx=0;entryDy=0;exitX=0.25;exitY=1;exitDx=0;exitDy=0;strokeColor=#FFD966;" edge="1" parent="2Q_M9urx1Pjpfh60Bvit-50">
          <mxGeometry width="50" height="50" relative="1" as="geometry">
            <mxPoint x="60" as="sourcePoint" />
            <mxPoint x="60" y="80" as="targetPoint" />
          </mxGeometry>
        </mxCell>
        <mxCell id="2Q_M9urx1Pjpfh60Bvit-58" value="" style="group" vertex="1" connectable="0" parent="1">
          <mxGeometry x="560" y="320" width="120" height="80" as="geometry" />
        </mxCell>
        <mxCell id="2Q_M9urx1Pjpfh60Bvit-52" value="" style="rounded=0;whiteSpace=wrap;html=1;strokeColor=#EA6B66;container=0;" vertex="1" parent="2Q_M9urx1Pjpfh60Bvit-58">
          <mxGeometry width="120" height="80" as="geometry" />
        </mxCell>
        <mxCell id="2Q_M9urx1Pjpfh60Bvit-53" value="" style="endArrow=none;html=1;rounded=0;entryX=0.25;entryY=0;entryDx=0;entryDy=0;exitX=0.25;exitY=1;exitDx=0;exitDy=0;strokeColor=#EA6B66;" edge="1" parent="2Q_M9urx1Pjpfh60Bvit-58">
          <mxGeometry width="50" height="50" relative="1" as="geometry">
            <mxPoint x="79.82999999999998" y="80" as="sourcePoint" />
            <mxPoint x="79.82999999999998" as="targetPoint" />
          </mxGeometry>
        </mxCell>
        <mxCell id="2Q_M9urx1Pjpfh60Bvit-54" value="" style="endArrow=none;html=1;rounded=0;entryX=0.25;entryY=0;entryDx=0;entryDy=0;exitX=0.25;exitY=1;exitDx=0;exitDy=0;strokeColor=#EA6B66;" edge="1" parent="2Q_M9urx1Pjpfh60Bvit-58">
          <mxGeometry width="50" height="50" relative="1" as="geometry">
            <mxPoint x="100" y="80" as="sourcePoint" />
            <mxPoint x="100" as="targetPoint" />
          </mxGeometry>
        </mxCell>
        <mxCell id="2Q_M9urx1Pjpfh60Bvit-55" value="" style="endArrow=none;html=1;rounded=0;entryX=0.25;entryY=0;entryDx=0;entryDy=0;exitX=0.25;exitY=1;exitDx=0;exitDy=0;strokeColor=#EA6B66;" edge="1" parent="2Q_M9urx1Pjpfh60Bvit-58">
          <mxGeometry width="50" height="50" relative="1" as="geometry">
            <mxPoint x="20" y="80" as="sourcePoint" />
            <mxPoint x="20" as="targetPoint" />
          </mxGeometry>
        </mxCell>
        <mxCell id="2Q_M9urx1Pjpfh60Bvit-56" value="" style="endArrow=none;html=1;rounded=0;entryX=0.25;entryY=0;entryDx=0;entryDy=0;exitX=0.25;exitY=1;exitDx=0;exitDy=0;strokeColor=#EA6B66;" edge="1" parent="2Q_M9urx1Pjpfh60Bvit-58">
          <mxGeometry width="50" height="50" relative="1" as="geometry">
            <mxPoint x="40" y="80" as="sourcePoint" />
            <mxPoint x="40" as="targetPoint" />
          </mxGeometry>
        </mxCell>
        <mxCell id="2Q_M9urx1Pjpfh60Bvit-57" value="" style="endArrow=none;html=1;rounded=0;entryX=0.25;entryY=0;entryDx=0;entryDy=0;exitX=0.25;exitY=1;exitDx=0;exitDy=0;strokeColor=#EA6B66;" edge="1" parent="2Q_M9urx1Pjpfh60Bvit-58">
          <mxGeometry width="50" height="50" relative="1" as="geometry">
            <mxPoint x="59.89999999999998" y="80" as="sourcePoint" />
            <mxPoint x="59.89999999999998" as="targetPoint" />
          </mxGeometry>
        </mxCell>
        <mxCell id="2Q_M9urx1Pjpfh60Bvit-60" style="edgeStyle=orthogonalEdgeStyle;rounded=0;orthogonalLoop=1;jettySize=auto;html=1;exitX=1;exitY=0.5;exitDx=0;exitDy=0;entryX=0;entryY=0.5;entryDx=0;entryDy=0;strokeColor=#EA6B66;" edge="1" parent="1" source="2Q_M9urx1Pjpfh60Bvit-52" target="2Q_M9urx1Pjpfh60Bvit-37">
          <mxGeometry relative="1" as="geometry" />
        </mxCell>
        <mxCell id="2Q_M9urx1Pjpfh60Bvit-61" value="Job" style="edgeLabel;html=1;align=center;verticalAlign=middle;resizable=0;points=[];" vertex="1" connectable="0" parent="2Q_M9urx1Pjpfh60Bvit-60">
          <mxGeometry x="0.2071" y="-1" relative="1" as="geometry">
            <mxPoint x="-4" y="-1" as="offset" />
          </mxGeometry>
        </mxCell>
        <mxCell id="2Q_M9urx1Pjpfh60Bvit-63" value="Job Queue" style="text;html=1;strokeColor=none;fillColor=none;align=center;verticalAlign=middle;whiteSpace=wrap;rounded=0;" vertex="1" parent="1">
          <mxGeometry x="540" y="290" width="160" height="30" as="geometry" />
        </mxCell>
        <mxCell id="2Q_M9urx1Pjpfh60Bvit-65" value="Unused_Data_Buf_Queue" style="text;html=1;strokeColor=none;fillColor=none;align=center;verticalAlign=middle;whiteSpace=wrap;rounded=0;" vertex="1" parent="1">
          <mxGeometry x="500" y="450" width="160" height="30" as="geometry" />
        </mxCell>
        <mxCell id="2Q_M9urx1Pjpfh60Bvit-66" value="Data_Buf_Queue" style="text;html=1;strokeColor=none;fillColor=none;align=center;verticalAlign=middle;whiteSpace=wrap;rounded=0;" vertex="1" parent="1">
          <mxGeometry x="925" y="304" width="110" height="30" as="geometry" />
        </mxCell>
        <mxCell id="2Q_M9urx1Pjpfh60Bvit-67" value="" style="group" vertex="1" connectable="0" parent="1">
          <mxGeometry x="520" y="480" width="120" height="80" as="geometry" />
        </mxCell>
        <mxCell id="2Q_M9urx1Pjpfh60Bvit-68" value="" style="rounded=0;whiteSpace=wrap;html=1;strokeColor=#FFD966;" vertex="1" parent="2Q_M9urx1Pjpfh60Bvit-67">
          <mxGeometry width="120" height="80" as="geometry" />
        </mxCell>
        <mxCell id="2Q_M9urx1Pjpfh60Bvit-69" value="" style="endArrow=none;html=1;rounded=0;entryX=0.25;entryY=0;entryDx=0;entryDy=0;exitX=0.25;exitY=1;exitDx=0;exitDy=0;strokeColor=#FFD966;" edge="1" parent="2Q_M9urx1Pjpfh60Bvit-67">
          <mxGeometry width="50" height="50" relative="1" as="geometry">
            <mxPoint x="79.82999999999998" y="80" as="sourcePoint" />
            <mxPoint x="79.82999999999998" as="targetPoint" />
          </mxGeometry>
        </mxCell>
        <mxCell id="2Q_M9urx1Pjpfh60Bvit-70" value="" style="endArrow=none;html=1;rounded=0;entryX=0.25;entryY=0;entryDx=0;entryDy=0;exitX=0.25;exitY=1;exitDx=0;exitDy=0;strokeColor=#FFD966;" edge="1" parent="2Q_M9urx1Pjpfh60Bvit-67">
          <mxGeometry width="50" height="50" relative="1" as="geometry">
            <mxPoint x="100" y="80" as="sourcePoint" />
            <mxPoint x="100" as="targetPoint" />
          </mxGeometry>
        </mxCell>
        <mxCell id="2Q_M9urx1Pjpfh60Bvit-71" value="" style="endArrow=none;html=1;rounded=0;entryX=0.25;entryY=0;entryDx=0;entryDy=0;exitX=0.25;exitY=1;exitDx=0;exitDy=0;strokeColor=#FFD966;" edge="1" parent="2Q_M9urx1Pjpfh60Bvit-67">
          <mxGeometry width="50" height="50" relative="1" as="geometry">
            <mxPoint x="20" y="80" as="sourcePoint" />
            <mxPoint x="20" as="targetPoint" />
          </mxGeometry>
        </mxCell>
        <mxCell id="2Q_M9urx1Pjpfh60Bvit-72" value="" style="endArrow=none;html=1;rounded=0;entryX=0.25;entryY=0;entryDx=0;entryDy=0;exitX=0.25;exitY=1;exitDx=0;exitDy=0;strokeColor=#FFD966;" edge="1" parent="2Q_M9urx1Pjpfh60Bvit-67">
          <mxGeometry width="50" height="50" relative="1" as="geometry">
            <mxPoint x="40" y="80" as="sourcePoint" />
            <mxPoint x="40" as="targetPoint" />
          </mxGeometry>
        </mxCell>
        <mxCell id="2Q_M9urx1Pjpfh60Bvit-73" value="" style="endArrow=none;html=1;rounded=0;entryX=0.25;entryY=0;entryDx=0;entryDy=0;exitX=0.25;exitY=1;exitDx=0;exitDy=0;strokeColor=#FFD966;" edge="1" parent="2Q_M9urx1Pjpfh60Bvit-67">
          <mxGeometry width="50" height="50" relative="1" as="geometry">
            <mxPoint x="59.89999999999998" y="80" as="sourcePoint" />
            <mxPoint x="59.89999999999998" as="targetPoint" />
          </mxGeometry>
        </mxCell>
        <mxCell id="2Q_M9urx1Pjpfh60Bvit-81" style="edgeStyle=orthogonalEdgeStyle;rounded=0;orthogonalLoop=1;jettySize=auto;html=1;entryX=1;entryY=0.5;entryDx=0;entryDy=0;strokeColor=#FFD966;" edge="1" parent="1" source="2Q_M9urx1Pjpfh60Bvit-74" target="2Q_M9urx1Pjpfh60Bvit-77">
          <mxGeometry relative="1" as="geometry" />
        </mxCell>
        <mxCell id="2Q_M9urx1Pjpfh60Bvit-87" value="Data_Buf" style="edgeLabel;html=1;align=center;verticalAlign=middle;resizable=0;points=[];" vertex="1" connectable="0" parent="2Q_M9urx1Pjpfh60Bvit-81">
          <mxGeometry x="0.0929" y="-2" relative="1" as="geometry">
            <mxPoint x="4" y="2" as="offset" />
          </mxGeometry>
        </mxCell>
        <mxCell id="2Q_M9urx1Pjpfh60Bvit-74" value="next_Buf" style="rounded=0;whiteSpace=wrap;html=1;" vertex="1" parent="1">
          <mxGeometry x="880" y="480" width="80" height="80" as="geometry" />
        </mxCell>
        <mxCell id="2Q_M9urx1Pjpfh60Bvit-75" style="edgeStyle=orthogonalEdgeStyle;rounded=0;orthogonalLoop=1;jettySize=auto;html=1;entryX=1;entryY=0.5;entryDx=0;entryDy=0;strokeColor=#FFD966;exitX=0;exitY=0.5;exitDx=0;exitDy=0;" edge="1" parent="1" target="2Q_M9urx1Pjpfh60Bvit-74">
          <mxGeometry relative="1" as="geometry">
            <mxPoint x="1040" y="370" as="sourcePoint" />
            <mxPoint x="925" y="516" as="targetPoint" />
            <Array as="points">
              <mxPoint x="1060" y="370" />
              <mxPoint x="1060" y="520" />
            </Array>
          </mxGeometry>
        </mxCell>
        <mxCell id="2Q_M9urx1Pjpfh60Bvit-85" value="Data_Buf" style="edgeLabel;html=1;align=center;verticalAlign=middle;resizable=0;points=[];" vertex="1" connectable="0" parent="2Q_M9urx1Pjpfh60Bvit-75">
          <mxGeometry x="-0.1857" relative="1" as="geometry">
            <mxPoint x="-50" y="60" as="offset" />
          </mxGeometry>
        </mxCell>
        <mxCell id="2Q_M9urx1Pjpfh60Bvit-79" style="edgeStyle=orthogonalEdgeStyle;rounded=0;orthogonalLoop=1;jettySize=auto;html=1;endArrow=none;endFill=0;strokeWidth=8;exitX=0.5;exitY=1;exitDx=0;exitDy=0;strokeColor=#FFD966;" edge="1" parent="1" source="2Q_M9urx1Pjpfh60Bvit-77" target="2Q_M9urx1Pjpfh60Bvit-42">
          <mxGeometry relative="1" as="geometry" />
        </mxCell>
        <mxCell id="2Q_M9urx1Pjpfh60Bvit-80" style="edgeStyle=orthogonalEdgeStyle;rounded=0;orthogonalLoop=1;jettySize=auto;html=1;exitX=0;exitY=0.5;exitDx=0;exitDy=0;entryX=1;entryY=0.5;entryDx=0;entryDy=0;strokeColor=#FFD966;" edge="1" parent="1" source="2Q_M9urx1Pjpfh60Bvit-77" target="2Q_M9urx1Pjpfh60Bvit-68">
          <mxGeometry relative="1" as="geometry">
            <mxPoint x="680" y="690" as="targetPoint" />
          </mxGeometry>
        </mxCell>
        <mxCell id="2Q_M9urx1Pjpfh60Bvit-84" value="Data_Buf" style="edgeLabel;html=1;align=center;verticalAlign=middle;resizable=0;points=[];" vertex="1" connectable="0" parent="2Q_M9urx1Pjpfh60Bvit-80">
          <mxGeometry x="0.1786" y="1" relative="1" as="geometry">
            <mxPoint x="7" y="-1" as="offset" />
          </mxGeometry>
        </mxCell>
        <mxCell id="2Q_M9urx1Pjpfh60Bvit-77" value="current_Buf" style="rounded=0;whiteSpace=wrap;html=1;" vertex="1" parent="1">
          <mxGeometry x="720" y="480" width="80" height="80" as="geometry" />
        </mxCell>
        <mxCell id="2Q_M9urx1Pjpfh60Bvit-88" value="&lt;div style=&quot;color: rgb(204, 204, 204); background-color: rgb(31, 31, 31); font-family: &amp;quot;UbuntuMono Nerd Font Propo&amp;quot;, &amp;quot;Droid Sans Mono&amp;quot;, &amp;quot;monospace&amp;quot;, monospace; font-weight: normal; font-size: 14px; line-height: 19px;&quot;&gt;__isr_dma()&lt;/div&gt;" style="rounded=0;whiteSpace=wrap;html=1;fillColor=none;dashed=1;dashPattern=8 8;spacing=5;labelPosition=center;verticalLabelPosition=top;align=center;verticalAlign=bottom;fontStyle=1" vertex="1" parent="1">
          <mxGeometry x="710" y="470" width="270" height="220" as="geometry" />
        </mxCell>
        <mxCell id="2Q_M9urx1Pjpfh60Bvit-82" style="edgeStyle=orthogonalEdgeStyle;rounded=0;orthogonalLoop=1;jettySize=auto;html=1;entryX=0.5;entryY=1;entryDx=0;entryDy=0;strokeColor=#FFD966;exitX=0;exitY=0.5;exitDx=0;exitDy=0;" edge="1" parent="1" source="2Q_M9urx1Pjpfh60Bvit-68" target="2Q_M9urx1Pjpfh60Bvit-17">
          <mxGeometry relative="1" as="geometry" />
        </mxCell>
        <mxCell id="2Q_M9urx1Pjpfh60Bvit-83" value="Data_Buf" style="edgeLabel;html=1;align=center;verticalAlign=middle;resizable=0;points=[];" vertex="1" connectable="0" parent="2Q_M9urx1Pjpfh60Bvit-82">
          <mxGeometry x="0.5321" y="1" relative="1" as="geometry">
            <mxPoint as="offset" />
          </mxGeometry>
        </mxCell>
        <mxCell id="2Q_M9urx1Pjpfh60Bvit-92" value="&lt;div style=&quot;color: rgb(204, 204, 204); background-color: rgb(31, 31, 31); font-family: &amp;quot;UbuntuMono Nerd Font Propo&amp;quot;, &amp;quot;Droid Sans Mono&amp;quot;, &amp;quot;monospace&amp;quot;, monospace; font-weight: normal; font-size: 14px; line-height: 19px;&quot;&gt;processing_job_task_function()&lt;/div&gt;" style="rounded=0;whiteSpace=wrap;html=1;fillColor=none;dashed=1;dashPattern=8 8;spacing=5;labelPosition=center;verticalLabelPosition=top;align=center;verticalAlign=bottom;fontStyle=1" vertex="1" parent="1">
          <mxGeometry x="700" y="310" width="180" height="100" as="geometry" />
        </mxCell>
        <mxCell id="2Q_M9urx1Pjpfh60Bvit-94" value="" style="endArrow=classic;html=1;rounded=0;strokeWidth=3;strokeColor=#FFD966;" edge="1" parent="1">
          <mxGeometry width="50" height="50" relative="1" as="geometry">
            <mxPoint x="579.8" y="610" as="sourcePoint" />
            <mxPoint x="579.8" y="560" as="targetPoint" />
          </mxGeometry>
        </mxCell>
        <mxCell id="2Q_M9urx1Pjpfh60Bvit-95" value="Initial Fill" style="edgeLabel;html=1;align=center;verticalAlign=middle;resizable=0;points=[];" vertex="1" connectable="0" parent="2Q_M9urx1Pjpfh60Bvit-94">
          <mxGeometry x="-0.368" relative="1" as="geometry">
            <mxPoint as="offset" />
          </mxGeometry>
        </mxCell>
        <mxCell id="2Q_M9urx1Pjpfh60Bvit-96" value="" style="endArrow=classic;html=1;rounded=0;strokeWidth=3;strokeColor=#00BFB4;" edge="1" parent="1">
          <mxGeometry width="50" height="50" relative="1" as="geometry">
            <mxPoint x="500" y="270" as="sourcePoint" />
            <mxPoint x="400" y="270" as="targetPoint" />
          </mxGeometry>
        </mxCell>
        <mxCell id="2Q_M9urx1Pjpfh60Bvit-97" value="Initial Fill" style="edgeLabel;html=1;align=center;verticalAlign=middle;resizable=0;points=[];" vertex="1" connectable="0" parent="2Q_M9urx1Pjpfh60Bvit-96">
          <mxGeometry x="-0.368" relative="1" as="geometry">
            <mxPoint x="-9" as="offset" />
          </mxGeometry>
        </mxCell>
        <mxCell id="2Q_M9urx1Pjpfh60Bvit-99" value="&lt;div style=&quot;color: rgb(204, 204, 204); background-color: rgb(31, 31, 31); font-family: &amp;quot;UbuntuMono Nerd Font Propo&amp;quot;, &amp;quot;Droid Sans Mono&amp;quot;, &amp;quot;monospace&amp;quot;, monospace; font-weight: normal; font-size: 14px; line-height: 19px;&quot;&gt;in_task_function()&lt;/div&gt;" style="rounded=0;whiteSpace=wrap;html=1;fillColor=none;dashed=1;dashPattern=8 8;spacing=5;labelPosition=center;verticalLabelPosition=top;align=center;verticalAlign=bottom;fontStyle=1" vertex="1" parent="1">
          <mxGeometry x="420" y="310" width="120" height="120" as="geometry" />
        </mxCell>
        <mxCell id="2Q_M9urx1Pjpfh60Bvit-100" value="n: General Queue length" style="text;html=1;strokeColor=none;fillColor=none;align=center;verticalAlign=middle;whiteSpace=wrap;rounded=0;" vertex="1" parent="1">
          <mxGeometry x="80" y="440" width="160" height="40" as="geometry" />
        </mxCell>
        <mxCell id="2Q_M9urx1Pjpfh60Bvit-114" value="[n+2]" style="text;html=1;strokeColor=none;fillColor=none;align=center;verticalAlign=middle;whiteSpace=wrap;rounded=0;" vertex="1" parent="1">
          <mxGeometry x="640" y="539" width="30" height="21" as="geometry" />
        </mxCell>
        <mxCell id="2Q_M9urx1Pjpfh60Bvit-102" value="[n]" style="text;html=1;strokeColor=none;fillColor=none;align=center;verticalAlign=middle;whiteSpace=wrap;rounded=0;" vertex="1" parent="1">
          <mxGeometry x="260" y="379" width="20" height="21" as="geometry" />
        </mxCell>
        <mxCell id="2Q_M9urx1Pjpfh60Bvit-116" value="[n]" style="text;html=1;strokeColor=none;fillColor=none;align=center;verticalAlign=middle;whiteSpace=wrap;rounded=0;" vertex="1" parent="1">
          <mxGeometry x="260" y="259" width="20" height="21" as="geometry" />
        </mxCell>
        <mxCell id="2Q_M9urx1Pjpfh60Bvit-117" value="[n]" style="text;html=1;strokeColor=none;fillColor=none;align=center;verticalAlign=middle;whiteSpace=wrap;rounded=0;" vertex="1" parent="1">
          <mxGeometry x="660" y="403" width="20" height="21" as="geometry" />
        </mxCell>
        <mxCell id="2Q_M9urx1Pjpfh60Bvit-118" value="[n]" style="text;html=1;strokeColor=none;fillColor=none;align=center;verticalAlign=middle;whiteSpace=wrap;rounded=0;" vertex="1" parent="1">
          <mxGeometry x="1020" y="413" width="20" height="21" as="geometry" />
        </mxCell>
        <mxCell id="2Q_M9urx1Pjpfh60Bvit-119" value="[n]" style="text;html=1;strokeColor=none;fillColor=none;align=center;verticalAlign=middle;whiteSpace=wrap;rounded=0;" vertex="1" parent="1">
          <mxGeometry x="500" y="259" width="20" height="21" as="geometry" />
        </mxCell>
        <mxCell id="2Q_M9urx1Pjpfh60Bvit-120" value="[n-2]" style="text;html=1;strokeColor=none;fillColor=none;align=center;verticalAlign=middle;whiteSpace=wrap;rounded=0;" vertex="1" parent="1">
          <mxGeometry x="565" y="610" width="30" height="21" as="geometry" />
        </mxCell>
        <mxCell id="2Q_M9urx1Pjpfh60Bvit-121" value="&lt;div style=&quot;color: rgb(204, 204, 204); background-color: rgb(31, 31, 31); font-family: &amp;quot;UbuntuMono Nerd Font Propo&amp;quot;, &amp;quot;Droid Sans Mono&amp;quot;, &amp;quot;monospace&amp;quot;, monospace; font-weight: normal; font-size: 14px; line-height: 19px;&quot;&gt;submit_instructions()&lt;/div&gt;&lt;div style=&quot;color: rgb(204, 204, 204); background-color: rgb(31, 31, 31); font-family: &amp;quot;UbuntuMono Nerd Font Propo&amp;quot;, &amp;quot;Droid Sans Mono&amp;quot;, &amp;quot;monospace&amp;quot;, monospace; font-weight: normal; font-size: 14px; line-height: 19px;&quot;&gt;&lt;div style=&quot;line-height: 19px;&quot;&gt;acquire_instruction_buf()&lt;/div&gt;&lt;/div&gt;" style="rounded=0;whiteSpace=wrap;html=1;fillColor=none;dashed=1;dashPattern=8 8;spacing=5;labelPosition=center;verticalLabelPosition=top;align=center;verticalAlign=bottom;fontStyle=1" vertex="1" parent="1">
          <mxGeometry x="50" y="304" width="180" height="116" as="geometry" />
        </mxCell>
        <mxCell id="2Q_M9urx1Pjpfh60Bvit-124" value="" style="endArrow=classic;html=1;rounded=0;strokeWidth=3;strokeColor=#FFD966;" edge="1" parent="1">
          <mxGeometry width="50" height="50" relative="1" as="geometry">
            <mxPoint x="1120" y="350" as="sourcePoint" />
            <mxPoint x="1040" y="350" as="targetPoint" />
          </mxGeometry>
        </mxCell>
        <mxCell id="2Q_M9urx1Pjpfh60Bvit-125" value="Initial Fill" style="edgeLabel;html=1;align=center;verticalAlign=middle;resizable=0;points=[];" vertex="1" connectable="0" parent="2Q_M9urx1Pjpfh60Bvit-124">
          <mxGeometry x="-0.368" relative="1" as="geometry">
            <mxPoint as="offset" />
          </mxGeometry>
        </mxCell>
        <mxCell id="2Q_M9urx1Pjpfh60Bvit-126" value="[2]" style="text;html=1;strokeColor=none;fillColor=none;align=center;verticalAlign=middle;whiteSpace=wrap;rounded=0;" vertex="1" parent="1">
          <mxGeometry x="1120" y="340" width="30" height="21" as="geometry" />
        </mxCell>
      </root>
    </mxGraphModel>
  </diagram>
</mxfile>
